<svg xmlns="http://www.w3.org/2000/svg" width="36.667" height="26.667" viewBox="0 0 36.667 26.667">
  <path id="Path_10" data-name="Path 10" d="M24.333,17.333a6.667,6.667,0,1,0-6.667-6.667A6.665,6.665,0,0,0,24.333,17.333ZM9.333,14V10.667a1.667,1.667,0,1,0-3.333,0V14H2.667a1.667,1.667,0,0,0,0,3.333H6v3.333a1.667,1.667,0,1,0,3.333,0V17.333h3.333a1.667,1.667,0,0,0,0-3.333Zm15,6.667C19.883,20.667,11,22.9,11,27.333V29a1.672,1.672,0,0,0,1.667,1.667H36A1.672,1.672,0,0,0,37.667,29V27.333C37.667,22.9,28.783,20.667,24.333,20.667Z" transform="translate(-1 -4)" fill="#2541b2"/>
</svg>
