<svg xmlns="http://www.w3.org/2000/svg" width="86" height="86" viewBox="0 0 86 86"><defs><filter id="a" x="0" y="0" width="86" height="86" filterUnits="userSpaceOnUse"><feOffset dy="3"/><feGaussianBlur stdDeviation="3" result="blur"/><feFlood flood-opacity=".161"/><feComposite operator="in" in2="blur"/><feComposite in="SourceGraphic"/></filter></defs><g data-name="Group 385"><g filter="url(#a)"><circle data-name="Ellipse 7" cx="34" cy="34" r="34" transform="translate(9 6)" fill="#f5f5f5"/></g><path data-name="Path 9" d="M23 20h40v40H23Z" fill="none"/><path data-name="Path 10" d="M48 40a6.667 6.667 0 1 0-6.667-6.667A6.665 6.665 0 0 0 48 40Zm-15-3.333v-3.333a1.667 1.667 0 1 0-3.333 0v3.333h-3.333a1.667 1.667 0 0 0 0 3.333h3.333v3.333a1.667 1.667 0 1 0 3.333 0V40h3.333a1.667 1.667 0 0 0 0-3.333Zm15 6.667c-4.45 0-13.333 2.233-13.333 6.666v1.667a1.672 1.672 0 0 0 1.667 1.667h23.333a1.672 1.672 0 0 0 1.667-1.667V50c0-4.433-8.884-6.666-13.334-6.666Z" fill="#2541b2"/></g></svg>