<svg id="language_black_24dp" xmlns="http://www.w3.org/2000/svg" width="22" height="22" viewBox="0 0 22 22">
  <path id="Path_252" data-name="Path 252" d="M0,0H22V22H0Z" fill="none" />
  <path id="Path_253" data-name="Path 253"
    d="M10.991,2A9,9,0,1,0,20,11,9,9,0,0,0,10.991,2Zm6.237,5.4H14.573a14.084,14.084,0,0,0-1.242-3.2A7.227,7.227,0,0,1,17.228,7.4ZM11,3.836A12.678,12.678,0,0,1,12.719,7.4H9.281A12.678,12.678,0,0,1,11,3.836ZM4.034,12.8a7.04,7.04,0,0,1,0-3.6H7.076A14.864,14.864,0,0,0,6.95,11a14.864,14.864,0,0,0,.126,1.8Zm.738,1.8H7.427a14.084,14.084,0,0,0,1.242,3.2,7.188,7.188,0,0,1-3.9-3.2ZM7.427,7.4H4.772a7.188,7.188,0,0,1,3.9-3.2A14.084,14.084,0,0,0,7.427,7.4ZM11,18.164A12.678,12.678,0,0,1,9.281,14.6h3.438A12.678,12.678,0,0,1,11,18.164ZM13.106,12.8H8.894A13.242,13.242,0,0,1,8.75,11a13.127,13.127,0,0,1,.144-1.8h4.212A13.127,13.127,0,0,1,13.25,11,13.242,13.242,0,0,1,13.106,12.8Zm.225,5a14.084,14.084,0,0,0,1.242-3.2h2.655A7.227,7.227,0,0,1,13.331,17.8Zm1.593-5A14.864,14.864,0,0,0,15.05,11a14.864,14.864,0,0,0-.126-1.8h3.042a7.04,7.04,0,0,1,0,3.6Z"
    fill="#2541b2" />
</svg>