<svg xmlns="http://www.w3.org/2000/svg" width="20.31" height="20.31" viewBox="0 0 20.31 20.31"><path d="M19.756 8.309a.554.554 0 0 0 .554-.554V5.358a.555.555 0 0 0-.306-.5l-9.6-4.8a.554.554 0 0 0-.5 0l-9.6 4.8a.554.554 0 0 0-.306.5v2.4a.554.554 0 0 0 .554.554h1.845v8.492H.55a.554.554 0 0 0-.554.554v2.4a.554.554 0 0 0 .554.554h19.2a.553.553 0 0 0 .554-.554v-2.4a.553.553 0 0 0-.554-.554h-1.847V8.312ZM1.108 5.697l9.047-4.524 9.047 4.524v1.5H1.108Zm12 11.1V8.305h1.289v8.492Zm-2.4 0V8.305h1.289v8.492Zm-2.4 0V8.305h1.289v8.492Zm-2.4 0V8.305h1.289v8.492Zm-2.4-8.492h1.289v8.492H3.504Zm15.689 10.898H1.108V17.91h18.089Zm-2.4-2.4h-1.292V8.31h1.292Z" fill="#2541b2"/></svg>