<svg id="calendar_month_black_24dp" xmlns="http://www.w3.org/2000/svg" width="24" height="24" viewBox="0 0 24 24">
  <g id="Group_434" data-name="Group 434">
    <rect id="Rectangle_456" data-name="Rectangle 456" width="24" height="24" fill="none" />
    <rect id="Rectangle_457" data-name="Rectangle 457" width="24" height="24" fill="none" />
  </g>
  <g id="Group_435" data-name="Group 435">
    <path id="Path_220" data-name="Path 220"
      d="M17,2a1,1,0,0,0-1,1V4H8V3A1,1,0,0,0,6,3V4H5A1.991,1.991,0,0,0,3.01,6L3,20a2,2,0,0,0,2,2H19a2.006,2.006,0,0,0,2-2V6a2.006,2.006,0,0,0-2-2H18V3A1,1,0,0,0,17,2Zm2,18H5V10H19Zm-8-7a1,1,0,1,1,1,1A1,1,0,0,1,11,13ZM7,13a1,1,0,1,1,1,1A1,1,0,0,1,7,13Zm8,0a1,1,0,1,1,1,1A1,1,0,0,1,15,13Zm-4,4a1,1,0,1,1,1,1A1,1,0,0,1,11,17ZM7,17a1,1,0,1,1,1,1A1,1,0,0,1,7,17Zm8,0a1,1,0,1,1,1,1A1,1,0,0,1,15,17Z"
      fill="#2541b2" />
  </g>
</svg>