<svg xmlns="http://www.w3.org/2000/svg" width="18" height="14.4" viewBox="0 0 18 14.4">
  <path id="mail_FILL0_wght400_GRAD0_opsz24"
    d="M3.8,18.4a1.733,1.733,0,0,1-1.271-.528A1.734,1.734,0,0,1,2,16.6V5.8a1.731,1.731,0,0,1,.529-1.271A1.731,1.731,0,0,1,3.8,4H18.2A1.805,1.805,0,0,1,20,5.8V16.6a1.8,1.8,0,0,1-1.8,1.8ZM18.2,7.6l-6.728,4.208a.922.922,0,0,1-.237.1.83.83,0,0,1-.472,0,.922.922,0,0,1-.237-.1L3.8,7.6v9H18.2ZM11,10.3l7.2-4.5H3.8ZM3.8,7.6v9h0Z"
    transform="translate(-2 -4)" fill="#2541b2" />
</svg>