<svg id="health_and_safety_black_24dp" xmlns="http://www.w3.org/2000/svg" width="24" height="24" viewBox="0 0 24 24">
  <rect id="Rectangle_458" data-name="Rectangle 458" width="24" height="24" fill="none" />
  <path id="Path_232" data-name="Path 232"
    d="M10.5,13h-1A1.5,1.5,0,0,1,8,11.5H8A1.5,1.5,0,0,1,9.5,10h1V9A1.5,1.5,0,0,1,12,7.5h0A1.5,1.5,0,0,1,13.5,9v1h1A1.5,1.5,0,0,1,16,11.5h0A1.5,1.5,0,0,1,14.5,13h-1v1A1.5,1.5,0,0,1,12,15.5h0A1.5,1.5,0,0,1,10.5,14Zm.8-10.74-6,2.25A2.014,2.014,0,0,0,4,6.39v4.7C4,16.14,7.41,20.85,12,22c4.59-1.15,8-5.86,8-10.91V6.39a2,2,0,0,0-1.3-1.87l-6-2.25A1.932,1.932,0,0,0,11.3,2.26Z"
    fill="#2541b2" />
</svg>