<svg id="theater_comedy_black_24dp" xmlns="http://www.w3.org/2000/svg" width="24" height="24" viewBox="0 0 24 24">
  <g id="Group_454" data-name="Group 454">
    <rect id="Rectangle_464" data-name="Rectangle 464" width="24" height="24" fill="none" />
  </g>
  <g id="Group_456" data-name="Group 456">
    <g id="Group_455" data-name="Group 455">
      <path id="Path_248" data-name="Path 248"
        d="M21,2H13a2.006,2.006,0,0,0-2,2V7.5h1.5a2.006,2.006,0,0,1,2,2v4.95a5.959,5.959,0,0,0,3.5.47,6.165,6.165,0,0,0,5-6.14V4A2.006,2.006,0,0,0,21,2ZM14,6.5a1,1,0,1,1,1,1A1,1,0,0,1,14,6.5Zm4.85,4.38H15.13a.5.5,0,0,1-.44-.75A2.652,2.652,0,0,1,16.99,9a2.635,2.635,0,0,1,2.3,1.14A.5.5,0,0,1,18.85,10.88ZM19,7.5a1,1,0,1,1,1-1A1,1,0,0,1,19,7.5Z"
        fill="#2541b2" />
      <path id="Path_249" data-name="Path 249"
        d="M11,9H3a2.006,2.006,0,0,0-2,2v4.79a6.147,6.147,0,0,0,5.21,6.16A6.006,6.006,0,0,0,13,16V11A2.006,2.006,0,0,0,11,9ZM4,13.5a1,1,0,1,1,1,1A1,1,0,0,1,4,13.5Zm5.3,3.25A2.623,2.623,0,0,1,7,17.89a2.635,2.635,0,0,1-2.3-1.14A.5.5,0,0,1,5.14,16H8.86A.5.5,0,0,1,9.3,16.75ZM9,14.5a1,1,0,1,1,1-1A1,1,0,0,1,9,14.5Z"
        fill="#2541b2" />
    </g>
  </g>
</svg>