<svg xmlns="http://www.w3.org/2000/svg" xmlns:xlink="http://www.w3.org/1999/xlink" width="59.718" height="85.311" viewBox="0 0 59.718 85.311">
  <defs>
    <clipPath id="clip-path">
      <path id="Path_266" data-name="Path 266" d="M326,222.14h59.718v85.311H326Z" transform="translate(-326 -222.14)" fill="#fafafa"/>
    </clipPath>
  </defs>
  <g id="Group_497" data-name="Group 497" clip-path="url(#clip-path)">
    <path id="Path_265" data-name="Path 265" d="M351.257,291.543a19.147,19.147,0,0,0-6.151-8.916L338.113,277a32.373,32.373,0,0,1-11.92-23.943c0-17.071,13.359-30.91,29.838-30.91s29.838,13.839,29.838,30.91A32.374,32.374,0,0,1,373.95,277l-6.993,5.624a19.146,19.146,0,0,0-6.151,8.916l-.823,2.485a4.132,4.132,0,0,1-7.9,0Zm4.774,15.919c-6.592,0-11.935-.83-11.935-1.855s5.343-1.855,11.935-1.855,11.936.83,11.936,1.855-5.344,1.854-11.936,1.854Zm14.323-51.691H358.828v.143a2.8,2.8,0,1,1-5.595,0v-.143H341.708v6.97a3.8,3.8,0,0,0,3.73,3.856h21.185a3.8,3.8,0,0,0,3.73-3.856Zm0-8.453a3.8,3.8,0,0,0-3.73-3.856h-1.865v-3.856a3.8,3.8,0,0,0-3.73-3.856h-10a3.8,3.8,0,0,0-3.729,3.856v3.856h-1.865a3.8,3.8,0,0,0-3.73,3.856v6.514H353.23a2.644,2.644,0,0,1,2.6-2.689h.4a2.644,2.644,0,0,1,2.6,2.689h11.525Zm-20.061-3.7v-3a1.751,1.751,0,0,1,1.718-1.776h8.041a1.75,1.75,0,0,1,1.718,1.776v3Z" transform="translate(-326.172 -222.149)" fill="#fafafa"/>
  </g>
</svg>
