<svg xmlns="http://www.w3.org/2000/svg" width="14" height="20" viewBox="0 0 14 20">
  <path id="pin_drop_FILL0_wght400_GRAD0_opsz24"
    d="M12,16.475a18.767,18.767,0,0,0,3.738-3.85A6.254,6.254,0,0,0,17,9.15a5.136,5.136,0,0,0-.512-2.388,5.019,5.019,0,0,0-1.263-1.6A4.861,4.861,0,0,0,13.6,4.275,5.377,5.377,0,0,0,12,4a5.377,5.377,0,0,0-1.6.275,4.861,4.861,0,0,0-1.625.887,5.008,5.008,0,0,0-1.262,1.6A5.128,5.128,0,0,0,7,9.15a6.254,6.254,0,0,0,1.262,3.475A18.767,18.767,0,0,0,12,16.475Zm0,2.175a1.407,1.407,0,0,1-.425-.063A1.308,1.308,0,0,1,11.2,18.4a21.088,21.088,0,0,1-4.662-4.725A8.127,8.127,0,0,1,5,9.15a7.157,7.157,0,0,1,.638-3.113A7.037,7.037,0,0,1,7.275,3.8a6.755,6.755,0,0,1,2.25-1.35,7.031,7.031,0,0,1,4.95,0,6.755,6.755,0,0,1,2.25,1.35,7.05,7.05,0,0,1,1.638,2.237A7.167,7.167,0,0,1,19,9.15a8.127,8.127,0,0,1-1.538,4.525A21.088,21.088,0,0,1,12.8,18.4a.993.993,0,0,1-.362.187A1.536,1.536,0,0,1,12,18.65ZM12,11a2.006,2.006,0,0,0,2-2,2,2,0,0,0-3.412-1.413,1.991,1.991,0,0,0,0,2.825A1.923,1.923,0,0,0,12,11ZM6,22a1,1,0,1,1,0-2H18a1,1,0,1,1,0,2ZM12,9.15Z"
    transform="translate(-5 -2)" fill="#2541b2" />
</svg>