<svg xmlns="http://www.w3.org/2000/svg" width="171.641" height="40" viewBox="0 0 171.641 40"><defs><clipPath id="a"><path data-name="Rectangle 128" fill="#2541b2" d="M0 0h171.641v40H0z"/></clipPath></defs><g data-name="Group 348" clip-path="url(#a)" fill="#2541b2"><path data-name="Path 149" d="M24.808 33.34a3.4 3.4 0 0 0-1.186-.776 4.126 4.126 0 0 0-1.532-.274h-2.853v7.626h2.853a4.127 4.127 0 0 0 1.532-.274 3.414 3.414 0 0 0 1.186-.774 3.461 3.461 0 0 0 .767-1.2 4.618 4.618 0 0 0 0-3.119 3.494 3.494 0 0 0-.767-1.205m-.212 4.021a2.619 2.619 0 0 1-.543.933 2.319 2.319 0 0 1-.851.583 2.942 2.942 0 0 1-1.112.2h-1.82v-5.956h1.82a2.95 2.95 0 0 1 1.112.2 2.32 2.32 0 0 1 .851.586 2.649 2.649 0 0 1 .543.937 4.21 4.21 0 0 1 0 2.512"/><path data-name="Rectangle 127" d="M34.893 32.289h1.032v7.626h-1.032z"/><path data-name="Path 150" d="M48.595 36.562a2.9 2.9 0 0 0 .79-.3 2.212 2.212 0 0 0 .591-.476 2 2 0 0 0 .37-.63 2.195 2.195 0 0 0 .127-.756 2.231 2.231 0 0 0-.165-.875 1.693 1.693 0 0 0-.508-.668 2.385 2.385 0 0 0-.87-.423 4.7 4.7 0 0 0-1.25-.146h-2.153v7.627h1.027v-3.183h.782a.712.712 0 0 1 .319.056.574.574 0 0 1 .2.184l1.98 2.724a.45.45 0 0 0 .415.218h.915l-2.224-3.028a1.086 1.086 0 0 0-.34-.325m-.963-.58h-1.08v-2.878h1.128a2.172 2.172 0 0 1 1.338.346 1.216 1.216 0 0 1 .45 1.027 1.56 1.56 0 0 1-.117.612 1.288 1.288 0 0 1-.349.476 1.618 1.618 0 0 1-.575.308 2.631 2.631 0 0 1-.8.109"/><path data-name="Path 151" d="M59.722 39.915h4.7v-.84H60.76v-2.6h2.964v-.809H60.76V33.13h3.662v-.841h-4.7Z"/><path data-name="Path 152" d="M78.73 38.339a.272.272 0 0 0-.176.08 3.307 3.307 0 0 1-.4.311 2.116 2.116 0 0 1-.431.215 2.5 2.5 0 0 1-.5.125 4.238 4.238 0 0 1-.612.04 2.677 2.677 0 0 1-1.043-.2 2.358 2.358 0 0 1-.838-.588 2.807 2.807 0 0 1-.559-.944 3.675 3.675 0 0 1-.2-1.272 3.607 3.607 0 0 1 .2-1.25 2.721 2.721 0 0 1 .572-.947 2.5 2.5 0 0 1 .875-.6 2.9 2.9 0 0 1 1.12-.21 3.208 3.208 0 0 1 .6.05 2.945 2.945 0 0 1 .458.125 2.281 2.281 0 0 1 .341.16c.1.057.179.11.25.16s.132.091.183.125a.274.274 0 0 0 .147.051.234.234 0 0 0 .138-.035.373.373 0 0 0 .085-.088l.335-.474a3.474 3.474 0 0 0-2.533-.968 4.127 4.127 0 0 0-1.557.284 3.522 3.522 0 0 0-1.211.8 3.619 3.619 0 0 0-.785 1.235 4.336 4.336 0 0 0-.279 1.58 4.6 4.6 0 0 0 .261 1.581 3.6 3.6 0 0 0 .734 1.232 3.281 3.281 0 0 0 1.144.8 3.794 3.794 0 0 0 1.5.285 3.868 3.868 0 0 0 1.61-.3 3.254 3.254 0 0 0 1.136-.846l-.4-.442a.213.213 0 0 0-.154-.069"/><path data-name="Path 153" d="M87.319 33.157h2.474v6.758h1.033v-6.758h2.464v-.868h-5.97Z"/><path data-name="Path 154" d="M107.349 33.297a3.436 3.436 0 0 0-1.19-.806 4.244 4.244 0 0 0-3.068 0 3.44 3.44 0 0 0-1.187.806 3.639 3.639 0 0 0-.766 1.235 4.693 4.693 0 0 0 0 3.145 3.6 3.6 0 0 0 .766 1.232 3.433 3.433 0 0 0 1.187.8 4.279 4.279 0 0 0 3.068 0 3.429 3.429 0 0 0 1.19-.8 3.6 3.6 0 0 0 .766-1.232 4.686 4.686 0 0 0 0-3.145 3.631 3.631 0 0 0-.766-1.235m-.213 4.066a2.679 2.679 0 0 1-.542.942 2.334 2.334 0 0 1-.851.591 3.138 3.138 0 0 1-2.23 0 2.35 2.35 0 0 1-.854-.591 2.653 2.653 0 0 1-.546-.942 4.237 4.237 0 0 1 0-2.52 2.64 2.64 0 0 1 .546-.944 2.379 2.379 0 0 1 .854-.594 3.1 3.1 0 0 1 2.23 0 2.362 2.362 0 0 1 .851.594 2.666 2.666 0 0 1 .542.944 4.237 4.237 0 0 1 0 2.52"/><path data-name="Path 155" d="M120.423 36.562a2.9 2.9 0 0 0 .79-.3 2.212 2.212 0 0 0 .591-.476 2 2 0 0 0 .37-.63 2.2 2.2 0 0 0 .127-.756 2.231 2.231 0 0 0-.165-.875 1.692 1.692 0 0 0-.508-.668 2.385 2.385 0 0 0-.87-.423 4.7 4.7 0 0 0-1.25-.146h-2.155v7.627h1.027v-3.183h.782a.712.712 0 0 1 .319.056.574.574 0 0 1 .2.184l1.98 2.724a.45.45 0 0 0 .415.218h.916l-2.224-3.028a1.082 1.082 0 0 0-.34-.325m-.963-.58h-1.08v-2.878h1.128a2.172 2.172 0 0 1 1.338.346 1.216 1.216 0 0 1 .45 1.027 1.56 1.56 0 0 1-.117.612 1.287 1.287 0 0 1-.349.476 1.618 1.618 0 0 1-.575.308 2.631 2.631 0 0 1-.8.109"/><path data-name="Path 156" d="M136.156 32.366a.678.678 0 0 0-.13.162l-1.741 2.964a2.962 2.962 0 0 0-.175.346 6.4 6.4 0 0 0-.128.33q-.059-.159-.13-.325a3.72 3.72 0 0 0-.178-.351l-1.746-2.964a.684.684 0 0 0-.138-.17.322.322 0 0 0-.218-.069h-.9l2.794 4.592v3.033h1.027v-3.033l2.8-4.592h-.915a.3.3 0 0 0-.215.077"/><path data-name="Path 157" d="m145.924 29.497.723-.376.278-.144-.144-.278-.348-.671a10.288 10.288 0 0 1-1.278.668l.347.668.145.278Z"/><path data-name="Path 158" d="m149.434 32.152-1.217-2.341-.145-.278-.278.144-.1.054-.516.268-.723.376-.516.268-.105.055-.278.144.144.278 1.217 2.341 3.19 6.134.144.278.278-.144 1.964-1.021.278-.145-.145-.278Z"/><path data-name="Path 159" d="M143.281 14.12a.47.47 0 1 0-.825.451l1.863 3.406a.469.469 0 0 0 .413.245.465.465 0 0 0 .225-.058.469.469 0 0 0 .187-.638Z"/><path data-name="Path 160" d="M142.505 15.701a.47.47 0 1 0-.825.452l.829 1.515a.47.47 0 0 0 .413.245.465.465 0 0 0 .225-.058.47.47 0 0 0 .187-.638Z"/><path data-name="Path 161" d="M81.839 8.209v6.788a.875.875 0 0 0-.407.738v1.425h1.754v-1.425a.875.875 0 0 0-.407-.738V8.028Z"/><path data-name="Path 162" d="m70.232 8.576.146.058.154-.03 13.2-2.541 1.8-.346-1.7-.678L71.344.058 71.198 0l-.154.03-13.2 2.541-1.8.346 1.7.678Z"/><path data-name="Path 163" d="m70.633 10.783-.313.06-.154.03-.146-.058-.3-.118-7.537-3.007-.665-.265-.067.713-.294 3.09-.011.11-.025.272.205.181c.842.742 4.041 1.979 8.52 2.4.983.094 1.97.141 2.933.141a14.483 14.483 0 0 0 5.881-.894l.242-.142.022-.28.007-.1.294-3.1.068-.713-.7.135Z"/><path data-name="Path 164" d="M171.105 7.194h-6.524V10.1h2.214v12.528L158.35 7.443l-.154-.276h-5.831V10.1h1.875v14.594h-1.82v2.893h7.06v-2.893h-2.03v-12.55l8.507 15.169.154.274h3.852V10.1h1.68V7.194Z"/><path data-name="Path 165" d="M.536 7.192H0v2.906h1.875v14.594H0v2.893h14.795V21.36h-3.324v3.332h-6.39v-6.038h5.925v-2.893H5.081V10.1h6.391v3.333h3.323V7.192H.536Z"/><path data-name="Path 166" d="M35.227 12.219a9.671 9.671 0 0 0-8.522-5.027h-7.67v2.906h1.875v14.594h-1.875v2.893h7.67a9.567 9.567 0 0 0 7.008-3 9.971 9.971 0 0 0 1.515-2.08 10.626 10.626 0 0 0 .96-2.445 10.923 10.923 0 0 0 .336-2.725 10.747 10.747 0 0 0-.336-2.693 10.387 10.387 0 0 0-.962-2.427m-2.079 5.123a8.3 8.3 0 0 1-.5 2.9 7.572 7.572 0 0 1-1.36 2.335 6.445 6.445 0 0 1-2 1.556 5.4 5.4 0 0 1-2.426.564h-2.745V10.099h2.746a5.5 5.5 0 0 1 2.429.553 6.36 6.36 0 0 1 2 1.53 7.452 7.452 0 0 1 1.359 2.3 8.051 8.051 0 0 1 .5 2.853"/><path data-name="Path 167" d="M98.751 24.692 92.744 7.551l-.125-.359h-4.305l-.126.358-6.02 17.142h-1.814v2.9h7.06v-2.9h-1.9l1.3-3.826h7.125l1.334 3.826h-1.507v2.9h7.06v-2.9h-2.074Zm-10.972-6.639 2.566-7.5 2.611 7.5Z"/><path data-name="Path 168" d="M118.333 13.055V7.192h-18.258v5.862h3.324V9.982h3.851v14.71h-1.81v2.893h7.047v-2.893h-2.031V9.982h4.555v3.073h3.323Z"/><path data-name="Path 169" d="M122.083 7.192h-.536v2.906h1.875v14.594h-1.875v2.893h6.956v-2.893h-1.875V10.1h1.875V7.192h-6.42Z"/><path data-name="Path 170" d="M76.659 24.96a8.555 8.555 0 0 0 1.675-2.633l.18-.465-.455-.215-1.931-.911-.476-.225-.233.472a7.3 7.3 0 0 1-2.4 2.961 6.1 6.1 0 0 1-3.4.943 5.5 5.5 0 0 1-2.57-.594 7.383 7.383 0 0 1-2-1.508 6.944 6.944 0 0 1-1.36-2.264 8.827 8.827 0 0 1-.525-3.158 8.729 8.729 0 0 1 .2-1.852l.1-.468-.454-.154a9.13 9.13 0 0 1-1.929-.881l-.621-.4-.189.714a11.871 11.871 0 0 0-.4 3.043 12.122 12.122 0 0 0 .716 4.135 9.9 9.9 0 0 0 2.087 3.446 9.786 9.786 0 0 0 3.119 2.242 9.3 9.3 0 0 0 3.845.79 9.453 9.453 0 0 0 3.984-.831 9.291 9.291 0 0 0 3.029-2.187"/><path data-name="Path 171" d="M51.395 7.192h-.536v2.906h2.135v8.866a9.633 9.633 0 0 1-.356 2.838 4.5 4.5 0 0 1-.967 1.762 3.436 3.436 0 0 1-1.47.922 6.428 6.428 0 0 1-1.958.284 5.326 5.326 0 0 1-1.871-.318 3.6 3.6 0 0 1-1.433-.986 4.851 4.851 0 0 1-.961-1.782 9.087 9.087 0 0 1-.356-2.72v-8.865h2.019V7.192h-7.048v2.906h1.81v8.814a11.027 11.027 0 0 0 .6 3.764 8.378 8.378 0 0 0 1.653 2.816 7.032 7.032 0 0 0 2.485 1.761 7.812 7.812 0 0 0 3.05.6 8.089 8.089 0 0 0 3.12-.6 7.147 7.147 0 0 0 2.537-1.78 8.415 8.415 0 0 0 1.688-2.884 11.579 11.579 0 0 0 .611-3.9v-8.59h1.758V7.192h-6.511Z"/><path data-name="Path 172" d="M151.225 17.297a10.313 10.313 0 1 0-10.313 10.313 10.324 10.324 0 0 0 10.313-10.313m-3.77 0a6.542 6.542 0 1 1-6.542-6.542 6.55 6.55 0 0 1 6.542 6.542"/></g></svg>