<svg xmlns="http://www.w3.org/2000/svg" width="32.777" height="13.398" viewBox="0 0 32.777 13.398"><g data-name="Group 363" fill="#2541b2"><path d="M32.412 5.481a.365.365 0 0 0 .365-.365V3.533a.366.366 0 0 0-.2-.327L26.244.039a.365.365 0 0 0-.327 0l-6.333 3.167a.365.365 0 0 0-.2.327v1.583a.365.365 0 0 0 .365.365h1.218v5.6h-1.218a.365.365 0 0 0-.365.365v1.584a.365.365 0 0 0 .365.365h12.667a.365.365 0 0 0 .365-.365v-1.584a.365.365 0 0 0-.365-.365h-1.218v-5.6Zm-12.3-1.723L26.08.774l5.968 2.984v.992H20.111Zm7.917 7.325v-5.6h.853v5.6Zm-1.584 0v-5.6h.853v5.6Zm-1.584 0v-5.6h.853v5.6Zm-1.583 0v-5.6h.852v5.6Zm-1.584-5.6h.853v5.6h-.853Zm10.352 7.186H20.111v-.853h11.936Zm-1.584-1.584h-.852v-5.6h.852Z"/><path data-name="Path 176" d="M2.844 4.155a.713.713 0 0 1 .711-.711h11.376a.711.711 0 0 0 0-1.422H2.844a1.426 1.426 0 0 0-1.422 1.422v7.821h-.356a1.067 1.067 0 0 0 0 2.133h8.888v-2.133h-7.11Zm13.509.711h-4.266a.713.713 0 0 0-.711.711v7.11a.713.713 0 0 0 .711.711h4.266a.713.713 0 0 0 .711-.711v-7.11a.713.713 0 0 0-.711-.711Zm-.711 6.4H12.8V6.288h2.844Z"/></g></svg>