<svg xmlns="http://www.w3.org/2000/svg" width="86" height="86" viewBox="0 0 86 86"><defs><filter id="a" x="0" y="0" width="86" height="86" filterUnits="userSpaceOnUse"><feOffset dy="3"/><feGaussianBlur stdDeviation="3" result="blur"/><feFlood flood-opacity=".161"/><feComposite operator="in" in2="blur"/><feComposite in="SourceGraphic"/></filter></defs><g data-name="Group 385"><g filter="url(#a)"><circle data-name="Ellipse 7" cx="34" cy="34" r="34" transform="translate(9 6)" fill="#f5f5f5"/></g><path d="M49.182 22H36.091A4.092 4.092 0 0 0 32 26.091v27.818A4.092 4.092 0 0 0 36.091 58h13.091a4.092 4.092 0 0 0 4.091-4.091V26.091A4.092 4.092 0 0 0 49.182 22Zm-6.546 34.364a2.455 2.455 0 1 1 2.455-2.455 2.451 2.451 0 0 1-2.455 2.455ZM50 49.818H35.273V26.909H50Z" fill="#2541b2"/></g></svg>