<svg id="psychology_black_24dp" xmlns="http://www.w3.org/2000/svg" width="24" height="24" viewBox="0 0 24 24">
  <g id="Group_448" data-name="Group 448">
    <rect id="Rectangle_459" data-name="Rectangle 459" width="24" height="24" fill="none" />
    <rect id="Rectangle_460" data-name="Rectangle 460" width="24" height="24" fill="none" />
  </g>
  <g id="Group_450" data-name="Group 450">
    <g id="Group_449" data-name="Group 449">
      <path id="Path_233" data-name="Path 233" d="M13,8.57A1.43,1.43,0,1,0,14.43,10,1.43,1.43,0,0,0,13,8.57Z"
        fill="#2541b2" />
      <path id="Path_234" data-name="Path 234"
        d="M13.21,3A6.993,6.993,0,0,0,6.02,9.64L4.1,12.2a.5.5,0,0,0,.4.8H6v3a2.006,2.006,0,0,0,2,2H9v2a1,1,0,0,0,1,1h5a1,1,0,0,0,1-1V16.32a7,7,0,0,0,4-6.58A7.107,7.107,0,0,0,13.21,3ZM16,10c0,.13-.01.26-.02.39l.83.66a.187.187,0,0,1,.05.25l-.8,1.39a.2.2,0,0,1-.24.09l-.99-.4a3,3,0,0,1-.67.39L14,13.83a.2.2,0,0,1-.2.17H12.2a.2.2,0,0,1-.2-.17l-.15-1.06a2.86,2.86,0,0,1-.68-.39l-.99.4a.21.21,0,0,1-.25-.09l-.8-1.39a.189.189,0,0,1,.05-.25l.84-.66c-.01-.13-.02-.26-.02-.39a2.453,2.453,0,0,1,.04-.39l-.85-.66a.2.2,0,0,1-.05-.26l.8-1.38a.2.2,0,0,1,.24-.09l1,.4a3.175,3.175,0,0,1,.67-.39L12,6.17A.2.2,0,0,1,12.2,6h1.6a.2.2,0,0,1,.2.17l.15,1.06a3,3,0,0,1,.67.39l1-.4a.193.193,0,0,1,.24.09l.8,1.38a.2.2,0,0,1-.05.26l-.85.66A1.611,1.611,0,0,1,16,10Z"
        fill="#2541b2" />
    </g>
  </g>
</svg>