<svg xmlns="http://www.w3.org/2000/svg" width="20.925" height="17.45" viewBox="0 0 20.925 17.45">
  <path id="school_FILL0_wght400_GRAD0_opsz24"
    d="M12,20.725a1.928,1.928,0,0,1-.488-.062,2.015,2.015,0,0,1-.462-.188l-5-2.7A1.968,1.968,0,0,1,5,16V11.2L2.6,9.875A.973.973,0,0,1,2.2,9.5a1.063,1.063,0,0,1,0-1,.973.973,0,0,1,.4-.375l8.45-4.6a2.015,2.015,0,0,1,.462-.188,1.952,1.952,0,0,1,.976,0,2.015,2.015,0,0,1,.462.188l9.525,5.2a.909.909,0,0,1,.388.362A1.011,1.011,0,0,1,23,9.6V16a1,1,0,1,1-2,0V10.1l-2,1.1V16a1.968,1.968,0,0,1-1.05,1.775l-5,2.7a2.015,2.015,0,0,1-.462.188A1.928,1.928,0,0,1,12,20.725ZM12,12.7h0L18.85,9,12,5.3h0L5.15,9Zm0,6.025h0l5-2.7h0V12.25l-4.025,2.225a1.931,1.931,0,0,1-.475.187,2.016,2.016,0,0,1-1,0,1.931,1.931,0,0,1-.475-.187L7,12.25v3.775H7ZM12,12.7Zm0,3.025Zm0,0Z"
    transform="translate(-2.075 -3.275)" fill="#2541b2" />
</svg>