<svg xmlns="http://www.w3.org/2000/svg" width="21.334" height="20.423" viewBox="0 0 21.334 20.423">
  <path id="new_releases_black_24dp" d="M22.42,11.34,20.56,9.22l.26-2.81a1,1,0,0,0-.77-1.07l-2.76-.63L15.85,2.28a1,1,0,0,0-1.25-.41L12,3,9.41,1.89a.993.993,0,0,0-1.25.41L6.71,4.72l-2.75.62a1,1,0,0,0-.78,1.07l.26,2.8L1.58,11.34a1,1,0,0,0,0,1.32l1.86,2.12L3.18,17.6a1,1,0,0,0,.77,1.07l2.76.63,1.44,2.42a1.006,1.006,0,0,0,1.26.41L12,21l2.59,1.11a.993.993,0,0,0,1.25-.41l1.44-2.43,2.76-.63a1,1,0,0,0,.77-1.07l-.26-2.81,1.86-2.12a.966.966,0,0,0,.01-1.3ZM13,17H11V15h2Zm-1-4a1,1,0,0,1-1-1V8a1,1,0,0,1,2,0v4A1,1,0,0,1,12,13Z" transform="translate(-1.333 -1.789)" fill="#fafafa"/>
</svg>
