<svg xmlns="http://www.w3.org/2000/svg" width="16" height="16" viewBox="0 0 16 16">
  <path id="person_FILL0_wght400_GRAD0_opsz24"
    d="M12,12a3.852,3.852,0,0,1-2.825-1.175A3.852,3.852,0,0,1,8,8,3.852,3.852,0,0,1,9.175,5.175a3.984,3.984,0,0,1,5.65,0A3.852,3.852,0,0,1,16,8a3.852,3.852,0,0,1-1.175,2.825A3.852,3.852,0,0,1,12,12ZM4,20V17.2a2.983,2.983,0,0,1,1.6-2.65,14.866,14.866,0,0,1,3.15-1.163,13.84,13.84,0,0,1,6.5,0A14.866,14.866,0,0,1,18.4,14.55,2.983,2.983,0,0,1,20,17.2V20Zm2-2H18v-.8a.943.943,0,0,0-.137-.5.977.977,0,0,0-.363-.35,13.056,13.056,0,0,0-2.725-1.013,11.594,11.594,0,0,0-5.55,0A13.056,13.056,0,0,0,6.5,16.35a.969.969,0,0,0-.362.35A.937.937,0,0,0,6,17.2Zm6-8a2.006,2.006,0,0,0,2-2,2,2,0,0,0-3.412-1.412,1.989,1.989,0,0,0,0,2.824A1.923,1.923,0,0,0,12,10Zm0-2Zm0,10Z"
    transform="translate(-4 -4)" fill="#2541b2" />
</svg>