<svg id="solar_power_black_24dp" xmlns="http://www.w3.org/2000/svg" width="24" height="24" viewBox="0 0 24 24">
  <g id="Group_451" data-name="Group 451">
    <rect id="Rectangle_462" data-name="Rectangle 462" width="24" height="24" fill="none" />
    <rect id="Rectangle_463" data-name="Rectangle 463" width="24" height="24" fill="none" />
  </g>
  <g id="Group_453" data-name="Group 453">
    <g id="Group_452" data-name="Group 452">
      <path id="Path_238" data-name="Path 238" d="M3.33,16H11V13H5.6a1.991,1.991,0,0,0-1.95,1.57Z" fill="#2541b2" />
      <path id="Path_239" data-name="Path 239" d="M13,16h7.67l-.32-1.43A2.007,2.007,0,0,0,18.4,13H13Z" fill="#2541b2" />
      <path id="Path_240" data-name="Path 240" d="M21.11,18H13v4h6.51a1.994,1.994,0,0,0,1.95-2.43Z" fill="#2541b2" />
      <path id="Path_241" data-name="Path 241" d="M4.49,22H11V18H2.89l-.35,1.57A1.994,1.994,0,0,0,4.49,22Z"
        fill="#2541b2" />
      <path id="Path_242" data-name="Path 242"
        d="M12,8h0a1,1,0,0,0-1,1v1a1,1,0,0,0,1,1h0a1,1,0,0,0,1-1V9A1,1,0,0,0,12,8Z" fill="#2541b2" />
      <path id="Path_243" data-name="Path 243"
        d="M18.59,8.62h0a1,1,0,0,0,0-1.41l-.71-.71a1,1,0,0,0-1.41,0h0a1,1,0,0,0,0,1.41l.71.71A1,1,0,0,0,18.59,8.62Z"
        fill="#2541b2" />
      <path id="Path_244" data-name="Path 244"
        d="M6.82,8.62l.71-.71a1,1,0,0,0,0-1.41h0a1,1,0,0,0-1.41,0l-.71.7a1,1,0,0,0,0,1.41h0A.987.987,0,0,0,6.82,8.62Z"
        fill="#2541b2" />
      <path id="Path_245" data-name="Path 245" d="M5,2H4A1,1,0,0,0,3,3H3A1,1,0,0,0,4,4H5A1,1,0,0,0,6,3H6A1,1,0,0,0,5,2Z"
        fill="#2541b2" />
      <path id="Path_246" data-name="Path 246"
        d="M20,2H19a1,1,0,0,0-1,1h0a1,1,0,0,0,1,1h1a1,1,0,0,0,1-1h0A1,1,0,0,0,20,2Z" fill="#2541b2" />
      <path id="Path_247" data-name="Path 247" d="M12,7a5,5,0,0,0,5-5H7A5,5,0,0,0,12,7Z" fill="#2541b2" />
    </g>
  </g>
</svg>