<svg xmlns="http://www.w3.org/2000/svg" xmlns:xlink="http://www.w3.org/1999/xlink" width="139.546" height="30.017" viewBox="0 0 139.546 30.017">
  <defs>
    <clipPath id="clip-path">
      <rect id="Rectangle_477" data-name="Rectangle 477" width="19.789" height="29.684" transform="translate(0 0)" fill="#f4b51e"/>
    </clipPath>
  </defs>
  <g id="Group_508" data-name="Group 508" transform="translate(5942 6995)">
    <g id="grade_black_24dp" transform="translate(-5851.949 -6995)">
      <path id="Path_275" data-name="Path 275" d="M0,0H30.017V30.017H0Z" fill="none"/>
      <path id="Path_276" data-name="Path 276" d="M14.326,20.9l6.466,3.9a.628.628,0,0,0,.938-.675l-1.713-7.354,5.7-4.94a.629.629,0,0,0-.363-1.1L17.84,10.1,14.9,3.167a.623.623,0,0,0-1.151,0L10.811,10.1l-7.517.638a.626.626,0,0,0-.35,1.1l5.7,4.94L6.934,24.129a.628.628,0,0,0,.938.675Z" transform="translate(0.683 0.698)" fill="#f4b51e"/>
    </g>
    <g id="grade_black_24dp-2" data-name="grade_black_24dp" transform="translate(-5881.966 -6995)">
      <path id="Path_275-2" data-name="Path 275" d="M0,0H30.017V30.017H0Z" fill="none"/>
      <path id="Path_276-2" data-name="Path 276" d="M14.326,20.9l6.466,3.9a.628.628,0,0,0,.938-.675l-1.713-7.354,5.7-4.94a.629.629,0,0,0-.363-1.1L17.84,10.1,14.9,3.167a.623.623,0,0,0-1.151,0L10.811,10.1l-7.517.638a.626.626,0,0,0-.35,1.1l5.7,4.94L6.934,24.129a.628.628,0,0,0,.938.675Z" transform="translate(0.683 0.698)" fill="#f4b51e"/>
    </g>
    <g id="grade_black_24dp-3" data-name="grade_black_24dp" transform="translate(-5911.983 -6995)">
      <path id="Path_275-3" data-name="Path 275" d="M0,0H30.017V30.017H0Z" fill="none"/>
      <path id="Path_276-3" data-name="Path 276" d="M14.326,20.9l6.466,3.9a.628.628,0,0,0,.938-.675l-1.713-7.354,5.7-4.94a.629.629,0,0,0-.363-1.1L17.84,10.1,14.9,3.167a.623.623,0,0,0-1.151,0L10.811,10.1l-7.517.638a.626.626,0,0,0-.35,1.1l5.7,4.94L6.934,24.129a.628.628,0,0,0,.938.675Z" transform="translate(0.683 0.698)" fill="#f4b51e"/>
    </g>
    <g id="grade_black_24dp-4" data-name="grade_black_24dp" transform="translate(-5942 -6995)">
      <path id="Path_275-4" data-name="Path 275" d="M0,0H30.017V30.017H0Z" fill="none"/>
      <path id="Path_276-4" data-name="Path 276" d="M14.326,20.9l6.466,3.9a.628.628,0,0,0,.938-.675l-1.713-7.354,5.7-4.94a.629.629,0,0,0-.363-1.1L17.84,10.1,14.9,3.167a.623.623,0,0,0-1.151,0L10.811,10.1l-7.517.638a.626.626,0,0,0-.35,1.1l5.7,4.94L6.934,24.129a.628.628,0,0,0,.938.675Z" transform="translate(0.683 0.698)" fill="#f4b51e"/>
    </g>
    <g id="Mask_Group_11" data-name="Mask Group 11" transform="translate(-5822.243 -6994.879)" clip-path="url(#clip-path)">
      <g id="grade_black_24dp-5" data-name="grade_black_24dp" transform="translate(0.311 -0.121)">
        <path id="Path_275-5" data-name="Path 275" d="M0,0H30.017V30.017H0Z" fill="none"/>
        <path id="Path_276-5" data-name="Path 276" d="M14.326,20.9l6.466,3.9a.628.628,0,0,0,.938-.675l-1.713-7.354,5.7-4.94a.629.629,0,0,0-.363-1.1L17.84,10.1,14.9,3.167a.623.623,0,0,0-1.151,0L10.811,10.1l-7.517.638a.626.626,0,0,0-.35,1.1l5.7,4.94L6.934,24.129a.628.628,0,0,0,.938.675Z" transform="translate(0.683 0.698)" fill="#f4b51e"/>
      </g>
    </g>
  </g>
</svg>
