<svg id="account_balance_black_24dp" xmlns="http://www.w3.org/2000/svg" width="20.109" height="20.109" viewBox="0 0 20.109 20.109">
  <path id="Path_31" data-name="Path 31" d="M0,0H20.109V20.109H0Z" fill="none"/>
  <path id="Path_32" data-name="Path 32" d="M3.676,9.84v3.352a1.257,1.257,0,0,0,2.514,0V9.84a1.257,1.257,0,0,0-2.514,0Zm5.027,0v3.352a1.257,1.257,0,0,0,2.514,0V9.84a1.257,1.257,0,0,0-2.514,0Zm-5.446,8.8H16.663a1.257,1.257,0,0,0,0-2.514H3.257a1.257,1.257,0,1,0,0,2.514ZM13.73,9.84v3.352a1.257,1.257,0,0,0,2.514,0V9.84a1.257,1.257,0,0,0-2.514,0ZM9.181,1.452,2.561,4.938a1.044,1.044,0,0,0,.486,1.969H16.881a1.044,1.044,0,0,0,.478-1.969L10.739,1.452a1.656,1.656,0,0,0-1.558,0Z" transform="translate(-0.324 -0.204)" fill="#123a5c"/>
</svg>
