<svg xmlns="http://www.w3.org/2000/svg" width="71.262" height="64.099" viewBox="0 0 71.262 64.099">
  <path id="Path_279_-_Outline" data-name="Path 279 - Outline" d="M346.579,347.98a2.735,2.735,0,0,1,1.395.37,2.8,2.8,0,0,1,1.108,1.212,3.5,3.5,0,0,1,.328,1.574,4.652,4.652,0,0,1-.325,1.6,4.56,4.56,0,0,1,1.68,2.4,4.832,4.832,0,0,1,.057,2.307,4.612,4.612,0,0,1,1.727,2.7,5.2,5.2,0,0,1-.627,3.555,3.672,3.672,0,0,1,.482.417,3.756,3.756,0,0,1,1.015,2.762,8.105,8.105,0,0,1-.648,2.853,21.462,21.462,0,0,1-2.419,4.254A22.766,22.766,0,0,1,348,376.826a10,10,0,0,1-1.63,1.455l4.313,7.779H351v.574l.494.892h0l.246.444a8.042,8.042,0,0,1,.841,2.067,4.178,4.178,0,0,1,.018,1.972,4,4,0,0,1-.957,1.751,7.058,7.058,0,0,1-1.829,1.382l-28.938,16.043a6.11,6.11,0,0,1-2.939.895,3.8,3.8,0,0,1-1.195-.19,4.178,4.178,0,0,1-1.663-1.06,8.045,8.045,0,0,1-1.308-1.809l-.166-.3-.02,0,.012-.018-5.2-9.375a9.991,9.991,0,0,1-2.118.615,25.615,25.615,0,0,1-5.315.538,18.283,18.283,0,0,1-3.212-.255,8.108,8.108,0,0,1-2.765-.962,3.761,3.761,0,0,1-1.8-2.327,3.651,3.651,0,0,1-.1-.626,5.2,5.2,0,0,1-3.348-1.352,4.611,4.611,0,0,1-1.375-2.9,4.844,4.844,0,0,1-1.927-1.271,4.558,4.558,0,0,1-1.145-2.694l-.642-.11.016-.053a4.4,4.4,0,0,1-.9-.41,3.5,3.5,0,0,1-1.158-1.111,2.748,2.748,0,0,1,.127-3.169,3.766,3.766,0,0,1,1.4-1.114,6.549,6.549,0,0,1,2.146-.579,63.01,63.01,0,0,1,6.6-.325,61.349,61.349,0,0,1,8.658.574c4.561.665,7.83,1.865,9.715,3.566a7.773,7.773,0,0,1,2.468,4.493q0,.026.009.052l21.837-12.1-.041-.037a7.772,7.772,0,0,1-2.5-4.472c-.443-2.5.271-5.9,2.123-10.125a66.017,66.017,0,0,1,7.873-13.075,6.538,6.538,0,0,1,1.628-1.513,3.766,3.766,0,0,1,1.686-.6C346.411,347.983,346.5,347.98,346.579,347.98Zm.105,4.025,0-.014.023-.053a1.679,1.679,0,0,0,.121-1.29.323.323,0,0,0-.113-.139.293.293,0,0,0-.14-.029.361.361,0,0,0-.046,0,1.36,1.36,0,0,0-.624.256,4.232,4.232,0,0,0-.933.909,61.036,61.036,0,0,0-3.826,5.539,58.273,58.273,0,0,0-3.722,6.992,28.5,28.5,0,0,0-1.679,4.813,9.875,9.875,0,0,0-.272,3.873,5.292,5.292,0,0,0,1.706,3.045,6.017,6.017,0,0,0,2.359,1.285,6.236,6.236,0,0,0,2.79.14,6.734,6.734,0,0,0,3.842-2.217l.009-.01.04-.043.014-.014a21.979,21.979,0,0,0,4.212-6.248,5.686,5.686,0,0,0,.471-1.959,1.4,1.4,0,0,0-.268-.945l-3.131,5.432a1.248,1.248,0,1,1-2.164-1.244l4.318-7.49a2.82,2.82,0,0,0,.428-1.954,1.89,1.89,0,0,0-.3-.691l-3.247,6.706a1.249,1.249,0,0,1-2.249-1.087v0l3.768-7.78a2.819,2.819,0,0,0,.286-1.979,1.874,1.874,0,0,0-.293-.6l-2.639,6.458a1.248,1.248,0,1,1-2.312-.942h0Zm-5.226,28.743a2.692,2.692,0,0,0,1.214-.284,2.746,2.746,0,0,0,.962-.8l.061-.081a8.712,8.712,0,0,1-4.369.138,2.706,2.706,0,0,0,2.132,1.03Zm0,2.113a4.836,4.836,0,0,1-4.182-2.413l-.322-.557-9.062,5.025a4.763,4.763,0,0,1,.55-.031,6.415,6.415,0,0,1,3.08.877,11.632,11.632,0,0,1,4.3,4.5l.006.011.016.029.027.049a11.635,11.635,0,0,1,1.536,6.027,6.6,6.6,0,0,1-.68,2.712,4.991,4.991,0,0,1-.421.681l10.308-5.715a4.831,4.831,0,0,1,1.49-7.488l-2.843-5.129-.073.3-.352-.264a4.858,4.858,0,0,1-1.222.872,4.786,4.786,0,0,1-2.16.506Zm-40.483,15.13a22.735,22.735,0,0,0,4.754-.481l.02,0,.053-.012.016,0a6.735,6.735,0,0,0,3.917-2.083,6.272,6.272,0,0,0,1.358-2.439,6.022,6.022,0,0,0,.158-2.684,5.294,5.294,0,0,0-1.678-3.06,9.877,9.877,0,0,0-3.427-1.82,28.506,28.506,0,0,0-4.972-1.128,58.873,58.873,0,0,0-8.3-.549,60.417,60.417,0,0,0-6.326.311,4.227,4.227,0,0,0-1.263.31,1.362,1.362,0,0,0-.549.394.254.254,0,0,0-.016.342,1.635,1.635,0,0,0,1.1.573h.011l.062.011,9.342,1.608a1.25,1.25,0,0,1-.422,2.464l-6.877-1.183a1.871,1.871,0,0,0,.35.562,2.817,2.817,0,0,0,1.828.8l8.592.926h0a1.25,1.25,0,1,1-.264,2.485l-7.41-.8a1.891,1.891,0,0,0,.428.62,2.818,2.818,0,0,0,1.882.672l8.639.306a1.249,1.249,0,1,1-.044,2.5h-.044l-6.267-.222a1.4,1.4,0,0,0,.66.727,5.686,5.686,0,0,0,1.908.639A15.86,15.86,0,0,0,300.976,397.99Zm24.464-1.7,0,0-.088-.159a11.644,11.644,0,0,1-1.562-6.075,6.6,6.6,0,0,1,.68-2.712,4.915,4.915,0,0,1,.523-.814l-10.645,5.9.24.457A4.593,4.593,0,0,1,315,394a4.787,4.787,0,0,1-1,4.126,5.092,5.092,0,0,1-1.223,1.052,5.509,5.509,0,0,1-1.283.58l3.433,6.192a4.836,4.836,0,0,1,7.374,1.593l10.84-6.008q-.188.015-.381.015a6.413,6.413,0,0,1-3.08-.877,11.588,11.588,0,0,1-4.235-4.384Zm8.17-4.868a10.455,10.455,0,0,0-1.531-2.074,7.619,7.619,0,0,0-1.772-1.4,3.937,3.937,0,0,0-1.863-.561,1.937,1.937,0,0,0-.951.23l-.046.026a2.069,2.069,0,0,0-.786.9,4.246,4.246,0,0,0-.379,1.635,7.646,7.646,0,0,0,.254,2.265,10.479,10.479,0,0,0,.982,2.451h0l.015.026a10.5,10.5,0,0,0,1.573,2.159,7.634,7.634,0,0,0,1.785,1.415,3.938,3.938,0,0,0,1.863.56,1.943,1.943,0,0,0,.934-.221l.016-.009a2.047,2.047,0,0,0,.832-.923,4.246,4.246,0,0,0,.379-1.635,7.636,7.636,0,0,0-.25-2.249,10.456,10.456,0,0,0-.967-2.433l-.071-.106Zm14.929,1.572.061-.034c.93-.516,1.444-1.02,1.571-1.54a3.378,3.378,0,0,0-.615-2.237l-.423-.762a2.721,2.721,0,0,0-1.159,3.935,2.749,2.749,0,0,0,.565.637Zm-37.573,4.716a3.136,3.136,0,0,0,1.415-.942,2.633,2.633,0,0,0,.62-1.639q0-.082,0-.163a8.684,8.684,0,0,1-2.034,2.744Zm9.478,10.86a2.723,2.723,0,0,0-3.919-1.175,2.759,2.759,0,0,0-.549.455,3.327,3.327,0,0,0,1.548,1.667,1.306,1.306,0,0,0,.416.064,3.806,3.806,0,0,0,1.722-.578Zm16.595-39.938a1.055,1.055,0,0,1,1.021,1.324,3.019,3.019,0,0,0-.032,1.645,3.925,3.925,0,0,0,1.1,1.68,1.055,1.055,0,0,1-1.481,1.5,5.952,5.952,0,0,1-1.65-2.6,5.109,5.109,0,0,1,.021-2.761l.181-.692.279.066a1.053,1.053,0,0,1,.561-.161ZM306.05,385.809a1.055,1.055,0,0,1,.314.048,5.11,5.11,0,0,1,2.352,1.445,5.956,5.956,0,0,1,1.336,2.78,1.055,1.055,0,1,1-2.06.456,3.928,3.928,0,0,0-.84-1.821,3.011,3.011,0,0,0-1.33-.817l-.085-.026a1.055,1.055,0,0,1,.314-2.064Z" transform="translate(-282.161 -347.98)" fill="#161616"/>
</svg>
