<svg xmlns="http://www.w3.org/2000/svg" width="151" height="71" viewBox="0 0 151 71">
  <g id="Group_588" data-name="Group 588" transform="translate(-754 -192)">
    <g id="Group_587" data-name="Group 587" transform="translate(754 204.931)">
      <rect id="Rectangle_509" data-name="Rectangle 509" width="43" height="31" transform="translate(0 0.069)" fill="#1cb19a"/>
      <circle id="Ellipse_44" data-name="Ellipse 44" cx="21.5" cy="21.5" r="21.5" transform="translate(0 10.069)" fill="#1cb19a"/>
    </g>
    <g id="Group_583" data-name="Group 583" transform="translate(802 195)">
      <text id="Get_a_Degree" data-name="Get a Degree" transform="translate(-0.001 32)" fill="#1cb19a" font-size="32" font-family="SegoeUI, Segoe UI"><tspan x="0" y="0">Get a</tspan><tspan x="0" y="28">Degree</tspan></text>
    </g>
    <g id="noun-search-5370791" transform="translate(760.984 213.749)">
      <path id="Path_300" data-name="Path 300" d="M408.825,182.4a.822.822,0,0,0,0,1.644,4.9,4.9,0,0,1,4.9,4.9.822.822,0,1,0,1.644,0,6.517,6.517,0,0,0-6.547-6.546Z" transform="translate(-398.411 -178.461)" fill="#f5f5f5"/>
      <path id="Path_301" data-name="Path 301" d="M58.38,55.388l-6.242-6.242a.9.9,0,0,0-1.249,0l-.091.091-2.282-2.284a10.448,10.448,0,1,0-8.1,3.806,10.319,10.319,0,0,0,6.609-2.375l2.281,2.282-.091.091a.9.9,0,0,0,0,1.249l6.242,6.244a1.893,1.893,0,0,0,2.71,0l.213-.213a1.874,1.874,0,0,0,0-2.649ZM40.415,48.72a8.343,8.343,0,1,1,8.343-8.344A8.343,8.343,0,0,1,40.415,48.72Z" transform="translate(-30.002 -29.863)" fill="#f5f5f5"/>
    </g>
  </g>
</svg>
