<svg id="military_tech_black_24dp" xmlns="http://www.w3.org/2000/svg" width="24" height="24" viewBox="0 0 24 24">
  <g id="Group_50" data-name="Group 50">
    <rect id="Rectangle_18" data-name="Rectangle 18" width="24" height="24" fill="none"/>
    <rect id="Rectangle_19" data-name="Rectangle 19" width="24" height="24" fill="none"/>
  </g>
  <g id="Group_51" data-name="Group 51">
    <path id="Path_39" data-name="Path 39" d="M17,10.43V3a1,1,0,0,0-1-1H8A1,1,0,0,0,7,3v7.43a.99.99,0,0,0,.49.86l4.18,2.51-.99,2.34-2.22.19a.5.5,0,0,0-.3.88l1.69,1.46-.51,2.18a.5.5,0,0,0,.75.54L12,20.23l1.91,1.15a.5.5,0,0,0,.75-.54l-.51-2.18,1.69-1.46a.5.5,0,0,0-.29-.88l-2.22-.19-.99-2.34,4.18-2.51A.962.962,0,0,0,17,10.43Zm-4,1.8-1,.6-1-.6V3h2Z" fill="#123a5c"/>
  </g>
</svg>
