<svg xmlns="http://www.w3.org/2000/svg" width="122.566" height="112" viewBox="0 0 122.566 112">
  <g id="Group_592" data-name="Group 592" transform="translate(-564 -291)">
    <g id="Group_591" data-name="Group 591" transform="translate(564 295)">
      <g id="Group_590" data-name="Group 590">
        <text id="My_Classes" data-name="My  Classes" transform="translate(0 29)" fill="#d09e02" font-size="31" font-family="SegoeUI, Segoe UI"><tspan x="0" y="0">My </tspan><tspan x="0" y="27">Classes</tspan></text>
        <text id="Online" transform="translate(1 95)" fill="#161616" font-size="31" font-family="SegoeUI-Italic, Segoe UI" font-style="italic"><tspan x="0" y="0">Online</tspan></text>
        <path id="Line_36" data-name="Line 36" d="M112.911-.018H108V-1h4.909Zm-9.818,0H98.184V-1h4.909Zm-9.818,0H88.365V-1h4.909Zm-9.818,0H78.547V-1h4.909Zm-9.818,0H68.729V-1h4.909Zm-9.818,0H58.91V-1h4.909ZM54-.018H49.092V-1H54Zm-9.818,0H39.273V-1h4.909Zm-9.818,0H29.455V-1h4.909Zm-9.818,0H19.637V-1h4.909Zm-9.818,0H9.818V-1h4.909Zm-9.818,0H0V-1H4.909Z" transform="translate(0.245 67.029)" fill="#d09e02"/>
      </g>
    </g>
    <path id="noun-open-book-3340790" d="M34.331,13.357c-1.7-.219-3.068-7.636-10.233-6.64C23.923,3.8,20.363,1.48,17.993.544a5.937,5.937,0,0,0-6.352.854C9.3,3.3.617,10.253.012,12.04a.473.473,0,0,0,.6.56c2.592-.832,5.253.3,7.474,1.625,1.669.993,4.092,2.6,4.821,4.51.1.271.209.373.468.338,6.416-.861,7.658,8.764,10.866,10.325a.482.482,0,0,0,.638-.2c2.951-5.233,6.529-10.17,9.888-15.148.218-.323-.121-.653-.433-.693ZM8.857,13.6c-2.125-1.387-4.789-2.5-7.364-2.16,3.559-3.381,7.671-6.8,9.832-8.57C12.932,1.552,13.992.635,16.286,1.03c2.556.442,6.957,3.041,6.865,6.092-3.505,3.285-6.26,7.325-9.647,10.725-1.013-1.794-3.01-3.18-4.649-4.25ZM24.3,28.308c-1.526-1.323-4.587-10.1-9.7-10.229,3.217-3.323,5.9-7.188,9.278-10.348,6.221-1.344,7.966,5.609,9.736,6.333-3.172,4.681-6.51,9.337-9.319,14.245ZM10.315,17.866a19.994,19.994,0,0,0-4.391-2.928A22,22,0,0,0,.861,13.219c2.841-.789,8.89,2.258,9.454,4.647ZM13.191,20.9A2.255,2.255,0,0,1,10.7,19.172,22.67,22.67,0,0,0,13.188,20.9Zm10.043,9.5c-1.61.3-3.264-1.455-3.842-2.889-1-2.483-2.186-6-5.488-6.5,2.73-.348,4.231,1.08,5.276,3.351.555,1.2,1.083,4.31,4.055,6.038Zm1.941-7.806a36.263,36.263,0,0,0-2.4-3.61,6.6,6.6,0,0,0-4.026-2.519C22.629,15.9,25.175,20.852,25.175,22.589ZM27.884,19.5a36.261,36.261,0,0,0-2.4-3.61,6.6,6.6,0,0,0-4.026-2.519C25.338,12.816,27.884,17.766,27.884,19.5Zm2.63-2.8a36.263,36.263,0,0,0-2.4-3.61A6.6,6.6,0,0,0,24.09,10.57c3.878-.558,6.424,4.392,6.424,6.129ZM13.9,13.987A34.007,34.007,0,0,0,11.15,11a6.192,6.192,0,0,0-4.1-1.739c3.51-1.089,6.6,3.121,6.854,4.729Zm2.97-3.461a34.005,34.005,0,0,0-2.754-2.99A6.192,6.192,0,0,0,10.02,5.8c3.51-1.089,6.6,3.121,6.854,4.729Zm2.6-2.572a34.008,34.008,0,0,0-2.754-2.99,6.192,6.192,0,0,0-4.1-1.739c3.51-1.089,6.6,3.121,6.854,4.729Z" transform="matrix(0.961, -0.276, 0.276, 0.961, 644.695, 373.75)"/>
  </g>
</svg>
