<svg xmlns="http://www.w3.org/2000/svg" width="116.505" height="109" viewBox="0 0 116.505 109">
  <g id="Group_589" data-name="Group 589" transform="translate(-547.777 -242.725)">
    <text id="MY_ONLINE_DEGREE" data-name="MY ONLINE DEGREE" transform="translate(547.777 292.725)" fill="#161616" font-size="29" font-family="SegoeUI, Segoe UI"><tspan x="0" y="0">MY</tspan><tspan x="0" y="26">ONLINE</tspan><tspan x="0" y="52">DEGREE</tspan></text>
    <path id="Subtraction_2" data-name="Subtraction 2" d="M9582.225-7220.79h-9.71v-1.75h8.838v-32.088h-11.335v6.691a.877.877,0,0,1-.144.482.88.88,0,0,1-.388.322l-4.361,1.833a23.5,23.5,0,0,1-4.437,1.363,23.527,23.527,0,0,1-4.62.461h-.06a23.457,23.457,0,0,1-4.6-.457,23.539,23.539,0,0,1-4.421-1.351l-4.363-1.831a.876.876,0,0,1-.385-.323.868.868,0,0,1-.146-.48v-6.711h-11.343v32.089h22.428v1.75h-23.3a1.628,1.628,0,0,1-.616-.255.867.867,0,0,1-.255-.618V-7255.5a.863.863,0,0,1,.255-.617.869.869,0,0,1,.616-.257h8.813l-2.13-.874a.88.88,0,0,1-.387-.323.86.86,0,0,1-.145-.481.882.882,0,0,1,.145-.482.878.878,0,0,1,.387-.322l19.2-8.088a.868.868,0,0,1,.341-.069.871.871,0,0,1,.34.068l19.194,8.088a.872.872,0,0,1,.387.322.872.872,0,0,1,.145.481.853.853,0,0,1-.145.481.865.865,0,0,1-.387.322l-2.129.875h8.726a.883.883,0,0,1,.616.257.878.878,0,0,1,.256.617v33.835a.875.875,0,0,1-.255.617,1.572,1.572,0,0,1-.616.256h0Zm-38.39-33.391v5.68l3.823,1.613a21.586,21.586,0,0,0,8.393,1.689,21.579,21.579,0,0,0,8.394-1.689l3.821-1.613v-5.68l-11.873,5a.762.762,0,0,1-.322.07h-.036a.806.806,0,0,1-.325-.07l-11.875-5Zm12.216-11.037-16.944,7.172,4.2,1.744,12.747,5.375,16.952-7.146-16.952-7.146Zm22.685,40.937h-3.489a.876.876,0,0,1-.756-.436.879.879,0,0,1,0-.875.874.874,0,0,1,.756-.436h2.615v-2.155a.863.863,0,0,1,.258-.617.87.87,0,0,1,.615-.255.868.868,0,0,1,.608.247.865.865,0,0,1,.264.6v3.054a.853.853,0,0,1-.254.617.863.863,0,0,1-.617.258Zm-41.879,0h-3.491a.867.867,0,0,1-.616-.255.867.867,0,0,1-.255-.617v-3.054a.873.873,0,0,1,.436-.756.881.881,0,0,1,.438-.117.875.875,0,0,1,.436.117.873.873,0,0,1,.437.755v2.18h2.618a.878.878,0,0,1,.756.436.879.879,0,0,1,0,.875.875.875,0,0,1-.756.435Zm41.879-23.791a.87.87,0,0,1-.437-.117.879.879,0,0,1-.437-.757v-2.188h-2.615a.873.873,0,0,1-.756-.437.879.879,0,0,1,0-.875.876.876,0,0,1,.756-.436h3.489a.868.868,0,0,1,.616.255.86.86,0,0,1,.255.617v3.063a.873.873,0,0,1-.435.755A.863.863,0,0,1,9578.735-7248.072Zm-45.37,0a.867.867,0,0,1-.436-.117.875.875,0,0,1-.436-.757v-3.061a.867.867,0,0,1,.255-.618.886.886,0,0,1,.616-.256h3.491a.877.877,0,0,1,.756.436.878.878,0,0,1,0,.874.879.879,0,0,1-.756.438h-2.618v2.189a.872.872,0,0,1-.435.756A.887.887,0,0,1,9533.365-7248.072Z" transform="translate(-8918.818 7509.734)" fill="#161616"/>
    <g id="noun-cursor-183251" transform="translate(631.634 267.821) rotate(14)">
      <path id="Path_310" data-name="Path 310" d="M16.747,7.1,10.334,9.955a.628.628,0,0,0-.322.322l-2.829,6.44c-.269.62-1.266.431-1.536-.322L.068.958A.664.664,0,0,1,.958.068L16.424,5.594c.754.243.943,1.239.322,1.509Z" transform="translate(7.403 7.264)" fill="#161616"/>
      <path id="Path_311" data-name="Path 311" d="M4.61,5.724.1,1.212A.822.822,0,0,1,1.212.1L5.7,4.61a.7.7,0,0,1-.143.971A.7.7,0,0,1,4.61,5.724Z" transform="translate(0 0)" fill="#161616"/>
      <path id="Path_312" data-name="Path 312" d="M5.439,1.219,1.212,5.474A.822.822,0,0,1,.1,4.36L4.354.133a.7.7,0,0,1,.971.143.687.687,0,0,1,.114.942Z" transform="translate(0.285 11.331)" fill="#161616"/>
      <path id="Path_313" data-name="Path 313" d="M0,3.4V.571C0,.257.343,0,.771,0s.771.257.771.571V3.4c0,.314-.343.571-.771.571S0,3.712,0,3.4Z" transform="translate(7.752 0.355)" fill="#161616"/>
      <path id="Path_314" data-name="Path 314" d="M3.4,0H.571C.257,0,0,.343,0,.771s.257.771.571.771H3.4c.314,0,.571-.343.571-.771S3.712,0,3.4,0Z" transform="translate(0.298 7.781)" fill="#161616"/>
      <path id="Path_315" data-name="Path 315" d="M.1,4.553,4.582.1A.822.822,0,0,1,5.7,1.212L1.212,5.667A.822.822,0,0,1,.1,4.553Z" transform="translate(11.281 0.029)" fill="#161616"/>
    </g>
  </g>
</svg>
