<svg id="paid_black_24dp" xmlns="http://www.w3.org/2000/svg" width="24" height="24" viewBox="0 0 24 24">
  <g id="Group_52" data-name="Group 52">
    <rect id="Rectangle_20" data-name="Rectangle 20" width="24" height="24" fill="none"/>
  </g>
  <g id="Group_53" data-name="Group 53">
    <path id="Path_40" data-name="Path 40" d="M12,2A10,10,0,1,0,22,12,10,10,0,0,0,12,2Zm.88,15.76v.36A.881.881,0,0,1,12,19h0a.881.881,0,0,1-.88-.88V17.7a4.01,4.01,0,0,1-2.69-2.1.862.862,0,0,1,.45-1.18l.07-.03a.851.851,0,0,1,1.08.39,2.34,2.34,0,0,0,2.12,1.37c.93,0,1.98-.48,1.98-1.61,0-.96-.7-1.46-2.28-2.03-1.1-.39-3.35-1.03-3.35-3.31a3.078,3.078,0,0,1,2.62-2.96V5.88A.881.881,0,0,1,12,5h0a.881.881,0,0,1,.88.88v.37a3.389,3.389,0,0,1,2.16,1.3.85.85,0,0,1-.36,1.3h0a.874.874,0,0,1-1.02-.28,1.9,1.9,0,0,0-1.6-.77c-.7,0-1.81.37-1.81,1.39,0,.95.86,1.31,2.64,1.9,2.4.83,3.01,2.05,3.01,3.45A3.315,3.315,0,0,1,12.88,17.76Z" fill="#123a5c"/>
  </g>
</svg>
