<svg xmlns="http://www.w3.org/2000/svg" width="43.353" height="44.223" viewBox="0 0 43.353 44.223">
  <g id="Group_533" data-name="Group 533" transform="translate(-19.399)">
    <path id="Path_273" data-name="Path 273" d="M35.338,6.682C35.338.419,24.71,0,24.71,0V25.109C24.724,32.127,29,38.267,35.338,41.592Z" transform="translate(-5.311)" fill="#ff8300"/>
    <path id="Path_274" data-name="Path 274" d="M62.148,7.073V20.218c0,9.678-6.061,13.129-11.731,13.129a12.982,12.982,0,0,1-5.369-1.135V43.586a23.822,23.822,0,0,0,5.481.637c11.8,0,21.886-8.577,21.906-19.116V0S62.147.733,62.147,7.074" transform="translate(-9.682 0)" fill="#fafafa"/>
    <path id="Path_275" data-name="Path 275" d="M50.417,6.233a7.449,7.449,0,0,0-5.37,2.156V27.068a7.449,7.449,0,0,0,5.37,2.156c2.916,0,6.389-1.352,6.389-7.788V14.02c0-6.438-3.473-7.788-6.389-7.788" transform="translate(-9.682 -1.339)" fill="#fafafa"/>
  </g>
</svg>
