<svg id="verified_user_black_24dp" xmlns="http://www.w3.org/2000/svg" width="20" height="20" viewBox="0 0 20 20">
  <path id="Path_29" data-name="Path 29" d="M0,0H20V20H0Z" fill="none"/>
  <path id="Path_30" data-name="Path 30" d="M10.5,1,3,4.333v5a10.371,10.371,0,0,0,7.5,10,10.371,10.371,0,0,0,7.5-10v-5Zm5.833,8.333A8.728,8.728,0,0,1,10.5,17.608,8.728,8.728,0,0,1,4.667,9.333V5.417L10.5,2.825l5.833,2.592Zm-9.658.492L5.5,11l3.333,3.333L15.5,7.667,14.325,6.483,8.833,11.975Z" transform="translate(-0.5 -0.167)" fill="#123a5c"/>
</svg>
