<svg id="verified_black_24dp" xmlns="http://www.w3.org/2000/svg" width="24" height="24" viewBox="0 0 24 24">
  <g id="Group_48" data-name="Group 48">
    <rect id="Rectangle_16" data-name="Rectangle 16" width="24" height="24" fill="none"/>
    <rect id="Rectangle_17" data-name="Rectangle 17" width="24" height="24" fill="none"/>
  </g>
  <g id="Group_49" data-name="Group 49">
    <path id="Path_36" data-name="Path 36" d="M23,12,20.56,9.21l.34-3.69L17.29,4.7,15.4,1.5,12,2.96,8.6,1.5,6.71,4.69,3.1,5.5l.34,3.7L1,12l2.44,2.79-.34,3.7,3.61.82L8.6,22.5,12,21.03l3.4,1.46,1.89-3.19,3.61-.82-.34-3.69ZM9.38,16.01,7,13.61A1,1,0,0,1,7,12.2l.07-.07a1.008,1.008,0,0,1,1.42,0l1.61,1.62,5.15-5.16a1.008,1.008,0,0,1,1.42,0l.07.07a1,1,0,0,1,0,1.41l-5.92,5.94A1.032,1.032,0,0,1,9.38,16.01Z" fill="#123a5c"/>
  </g>
</svg>
